# xmcd
#
# Track frame offsets:
#  150
#  16137
#  27732
#  38772
#  52790
#  67107
#  80357
#  98595
#  115315
#  127340
#  139800
#  158860
#
# Disc length: 2296 seconds
#
# Revision: 0
# Processed by: cddbd v1.5.1PL2 Copyright (c) Steve Scherf et al.
# Submitted via: Collectorz.com_Music_Collector 6.11
#
DISCID=9f08f60c
DTITLE=Hey Negrita - The Buzz Above
DYEAR=2006
DGENRE=Country general
TTITLE0=Can't Walk Away
TTITLE1=All About Me
TTITLE2=Penny Drops
TTITLE3=Abandon Ship
TTITLE4=Coming Down
TTITLE5=Good Times
TTITLE6=Charlene
TTITLE7=The Message
TTITLE8=Hold Tight
TTITLE9=Nine To Five
TTITLE10=Lust And Bones
TTITLE11=Sunlight Hits Your Eyes
EXTD=
EXTT0=
EXTT1=
EXTT2=
EXTT3=
EXTT4=
EXTT5=
EXTT6=
EXTT7=
EXTT8=
EXTT9=
EXTT10=
EXTT11=
PLAYORDER=
